<svg xmlns="http://www.w3.org/2000/svg" viewBox="0 0 32 32">
  <circle cx="16" cy="16" r="16" fill="#1B1F23"/>
  <path fill="white" d="M16 5.8c-5.63 0-10.2 4.57-10.2 10.2 0 4.51 2.93 8.32 6.97 9.67.51.09.7-.22.7-.49 0-.24-.01-1.04-.01-1.89-2.84.62-3.44-1.21-3.44-1.21-.46-1.18-1.13-1.49-1.13-1.49-.93-.63.07-.62.07-.62 1.03.07 1.57 1.06 1.57 1.06.91 1.56 2.39 1.11 2.98.85.09-.66.36-1.11.65-1.37-2.27-.26-4.66-1.13-4.66-5.04 0-1.11.4-2.02 1.05-2.73-.11-.26-.46-1.29.1-2.69 0 0 .85-.27 2.8 1.05.81-.23 1.68-.34 2.55-.34.87 0 1.74.11 2.55.34 1.94-1.32 2.8-1.05 2.8-1.05.56 1.4.21 2.43.1 2.69.66.71 1.05 1.62 1.05 2.73 0 3.92-2.39 4.78-4.67 5.04.37.32.7.95.7 1.92 0 1.38-.01 2.5-.01 2.84 0 .27.19.59.7.49 4.04-1.35 6.97-5.16 6.97-9.67C26.2 10.37 21.63 5.8 16 5.8z"/>
</svg>